<mxfile host="app.diagrams.net" modified="2022-05-06T13:33:52.737Z" agent="5.0 (X11; CrOS x86_64 14268.67.0) AppleWebKit/537.36 (KHTML, like Gecko) Chrome/96.0.4664.111 Safari/537.36" etag="LFgPKrWTu9_EqKELYzTV" version="18.0.1" type="github">
  <diagram id="Wr9ieiFXXgjbIbM-0Co7" name="Page-1">
    <mxGraphModel dx="881" dy="521" grid="1" gridSize="10" guides="1" tooltips="1" connect="1" arrows="1" fold="1" page="1" pageScale="1" pageWidth="850" pageHeight="1100" math="0" shadow="0">
      <root>
        <mxCell id="0" />
        <mxCell id="1" parent="0" />
        <mxCell id="JPoifFXFvs0oPWxvo5Is-1" value="&lt;h1&gt;A history of anarchy, and what it means.&lt;/h1&gt;" style="text;html=1;strokeColor=none;fillColor=none;spacing=5;spacingTop=-20;whiteSpace=wrap;overflow=hidden;rounded=0;" vertex="1" parent="1">
          <mxGeometry x="20" y="20" width="500" height="120" as="geometry" />
        </mxCell>
        <mxCell id="JPoifFXFvs0oPWxvo5Is-2" value="&lt;b&gt;created by Chris M.&lt;/b&gt;" style="text;html=1;strokeColor=none;fillColor=none;align=center;verticalAlign=middle;whiteSpace=wrap;rounded=0;" vertex="1" parent="1">
          <mxGeometry x="380" y="40" width="155" height="30" as="geometry" />
        </mxCell>
      </root>
    </mxGraphModel>
  </diagram>
</mxfile>
